<svg xmlns="http://www.w3.org/2000/svg" viewBox="0 0 1492 1492" width="1492" height="1492" preserveAspectRatio="xMidYMid meet"><circle cx="744.5" cy="746.0" r="712.0" fill="#FFFFFF"/>
<g transform="translate(0.000000,1492.000000) scale(0.100000,-0.100000)" fill="#7FE599" stroke="none">
<path d="M7440 10843 c-52 -20 -110 -69 -125 -107 -33 -83 -39 -93 -76 -119
-20 -15 -52 -53 -69 -84 -48 -84 -89 -136 -140 -174 -75 -56 -99 -82 -130
-135 -33 -59 -72 -94 -105 -94 -28 0 -67 -38 -89 -88 -14 -32 -28 -44 -69 -62
-96 -41 -139 -64 -183 -97 -23 -18 -50 -33 -58 -33 -9 0 -24 -9 -33 -20 -10
-11 -30 -20 -45 -20 -18 0 -44 -15 -78 -45 -31 -27 -60 -45 -75 -45 -39 0
-116 -30 -154 -60 -20 -15 -47 -31 -61 -35 -14 -5 -52 -20 -85 -35 -34 -16
-88 -30 -124 -34 -90 -9 -141 -25 -141 -46 0 -29 -66 -73 -98 -66 -18 4 -22 3
-13 -2 8 -6 -20 -8 -75 -7 -49 2 -97 -2 -108 -7 -12 -7 -32 -6 -60 2 -22 6
-56 12 -74 14 -19 1 -37 8 -42 15 -4 7 -22 15 -39 17 -17 2 -41 13 -53 24 -24
22 -63 27 -74 9 -3 -6 -2 -21 4 -32 6 -12 13 -30 16 -40 5 -16 17 -18 108 -15
109 3 128 -2 128 -31 0 -44 -86 -52 -377 -36 -127 7 -122 10 -142 -84 -6 -30
-23 -76 -36 -103 -29 -58 -31 -104 -9 -193 15 -58 15 -72 -1 -169 -9 -58 -14
-110 -11 -115 3 -5 6 -751 6 -1657 0 -1643 2 -1714 32 -1714 4 0 8 -24 7 -52
-1 -42 -3 -48 -9 -28 -11 35 -11 16 0 -75 5 -44 12 -105 14 -135 11 -124 24
-218 30 -228 4 -6 8 -51 10 -99 2 -48 8 -101 13 -118 6 -16 8 -35 6 -40 -2 -6
17 -35 42 -64 25 -29 45 -59 45 -67 0 -8 7 -17 15 -20 17 -7 49 -73 66 -137 6
-24 25 -54 45 -72 24 -22 39 -51 54 -99 18 -58 31 -78 84 -132 40 -40 74 -88
95 -131 39 -82 74 -136 117 -183 17 -19 34 -46 37 -60 4 -14 19 -40 36 -58 16
-19 27 -41 24 -50 -3 -11 9 -30 31 -50 20 -18 36 -37 36 -42 0 -6 11 -10 25
-10 17 0 38 -14 63 -42 20 -22 57 -50 82 -61 63 -28 130 -74 163 -114 16 -18
35 -33 42 -33 8 0 19 -8 24 -18 5 -10 36 -31 68 -46 32 -16 76 -41 98 -56 64
-43 96 -62 165 -97 36 -18 70 -39 75 -46 11 -15 15 -17 45 -17 13 0 24 -10 30
-25 5 -13 22 -30 37 -38 46 -24 183 -67 212 -67 15 0 32 -5 39 -12 6 -6 31
-13 54 -14 58 -3 155 -21 171 -31 6 -4 91 -13 187 -20 96 -7 227 -17 290 -23
76 -6 131 -6 163 0 26 6 82 10 124 10 66 0 74 2 63 15 -11 13 -8 15 16 15 23
0 26 -2 14 -11 -20 -14 86 -3 205 21 50 10 99 18 110 17 40 -1 95 13 127 33
18 11 45 20 60 20 44 0 200 40 215 56 8 8 19 14 24 14 5 0 23 15 39 34 30 33
111 66 201 81 24 3 50 19 80 49 26 25 64 49 93 59 28 10 68 35 95 60 204 193
198 188 286 230 45 22 141 134 137 162 -3 22 8 32 90 81 32 19 88 87 114 138
14 27 45 69 68 95 23 25 53 66 65 91 13 25 40 65 60 90 36 46 57 82 86 155 9
22 29 54 45 70 32 33 43 58 72 160 12 46 30 81 49 101 21 22 32 46 38 85 5 30
12 61 15 69 3 8 7 55 10 104 4 80 8 92 30 113 14 13 28 34 30 46 15 69 27 234
21 273 -4 30 -3 49 4 53 12 8 24 126 21 206 -1 28 -4 786 -6 1685 -3 1166 -1
1654 6 1700 25 142 26 233 6 265 -14 22 -18 38 -41 160 -11 61 -12 88 -4 113
6 18 8 36 5 39 -3 3 -43 0 -88 -7 -96 -15 -91 -15 -226 -2 -56 5 -109 15 -117
22 -8 7 -21 10 -29 7 -8 -3 -43 3 -78 13 -34 10 -88 21 -118 25 -33 3 -70 16
-94 31 -21 14 -57 27 -80 29 -22 2 -60 10 -83 19 -24 8 -64 17 -90 20 -27 4
-56 15 -68 26 -12 11 -26 20 -31 20 -6 0 -28 13 -50 30 -21 16 -48 30 -59 30
-11 0 -31 7 -43 16 -13 9 -33 14 -44 11 -12 -3 -39 3 -61 14 -28 15 -49 19
-73 14 -26 -4 -33 -3 -28 8 3 9 -17 27 -61 52 -36 21 -65 42 -65 47 0 4 -8 8
-19 8 -10 0 -24 7 -31 15 -6 8 -22 17 -33 21 -27 8 -98 54 -114 74 -8 9 -10
32 -7 61 7 60 -8 70 -47 33 -53 -51 -170 -48 -198 4 -16 30 11 92 45 107 50
21 68 50 69 110 1 30 -1 53 -3 50 -3 -3 -10 -1 -16 4 -6 5 -31 6 -56 2 -45 -6
-45 -6 -50 -50 -4 -32 -10 -46 -25 -51 -31 -11 -77 -4 -131 19 -51 22 -105 85
-136 161 -9 19 -44 67 -79 105 -35 39 -71 83 -79 99 -8 16 -26 36 -39 45 -53
35 -81 72 -81 106 0 89 -65 152 -130 128z m-893 -2927 c-8 -19 122 -43 221
-40 77 2 81 0 131 -74 8 -11 34 -31 58 -43 24 -12 69 -51 100 -86 44 -49 62
-80 83 -140 16 -47 25 -90 22 -108 -2 -16 -7 -471 -11 -1010 -5 -791 -3 -988
7 -1020 16 -49 18 -126 3 -153 -5 -10 -24 -25 -41 -32 -28 -12 -37 -10 -104
24 -54 26 -80 46 -95 71 -11 20 -29 38 -38 41 -70 23 -121 56 -148 93 -31 46
-52 61 -86 61 -12 0 -40 8 -61 17 -31 14 -38 22 -38 44 0 33 -46 114 -101 180
-22 26 -39 50 -39 54 0 4 -11 20 -25 37 -14 16 -25 38 -25 49 0 11 -7 22 -15
25 -24 10 -56 75 -66 137 -6 33 -16 71 -23 86 -7 14 -16 69 -20 121 -3 52 -11
99 -16 104 -6 6 -10 20 -10 33 0 12 -4 32 -9 45 -25 66 -33 141 -33 333 0 112
4 210 8 216 4 7 10 39 14 73 9 73 16 104 28 120 4 6 9 49 11 96 2 60 7 92 19
109 37 52 40 61 30 107 -7 31 -6 55 1 77 8 21 8 33 1 35 -13 5 -13 42 0 42 6
0 10 -7 10 -15 0 -8 5 -15 10 -15 6 0 10 4 10 9 0 5 12 11 28 14 19 4 34 18
48 44 21 38 21 47 3 148 -3 16 9 27 61 52 36 18 66 37 68 43 2 5 11 10 19 10
9 0 13 -6 10 -14z m1922 -70 c61 -51 127 -185 134 -272 6 -70 10 -98 27 -189
5 -27 12 -88 14 -135 4 -85 9 -120 26 -175 4 -16 11 -52 15 -80 4 -27 13 -60
21 -72 8 -12 14 -42 14 -66 0 -23 4 -47 9 -52 16 -17 18 -49 6 -75 -7 -14 -12
-46 -12 -72 -1 -25 -8 -56 -16 -68 -9 -12 -13 -29 -10 -37 3 -7 -3 -23 -13
-34 -11 -12 -20 -31 -21 -43 -6 -58 -22 -136 -33 -156 -7 -13 -14 -73 -16
-134 -3 -102 -18 -196 -34 -221 -4 -5 -13 -31 -20 -57 -7 -26 -19 -53 -26 -59
-8 -6 -14 -15 -14 -20 0 -11 -45 -77 -78 -114 -54 -60 -73 -89 -71 -109 5 -41
-13 -67 -79 -110 -37 -24 -87 -63 -112 -87 -70 -68 -76 -72 -98 -60 -23 12
-52 -2 -114 -53 -51 -42 -132 -86 -158 -86 -11 0 -31 12 -45 28 -25 26 -26 30
-20 121 5 81 4 96 -12 113 -17 19 -18 70 -21 954 -2 933 -2 933 28 967 26 30
30 43 30 90 0 59 22 119 56 153 12 12 23 25 26 30 2 5 37 42 78 81 108 104
177 125 432 131 62 2 69 0 107 -32z"/>
</g>
<g transform="translate(0.000000,1492.000000) scale(0.100000,-0.100000)" fill="#0F3D4C" stroke="none">
<path d="M6935 14870 c-88 -4 -194 -12 -235 -18 -41 -6 -104 -14 -140 -17 -92
-8 -332 -43 -415 -61 -38 -8 -100 -19 -137 -24 -37 -6 -78 -14 -91 -19 -13 -5
-50 -12 -82 -16 -33 -5 -74 -14 -91 -21 -18 -7 -56 -18 -85 -23 -30 -5 -81
-17 -114 -26 -172 -48 -206 -57 -270 -77 -65 -19 -113 -36 -205 -68 -19 -7
-55 -18 -80 -26 -75 -22 -164 -55 -175 -64 -5 -5 -27 -11 -48 -15 -20 -4 -39
-11 -42 -15 -3 -5 -22 -14 -43 -20 -33 -11 -63 -23 -157 -65 -16 -8 -56 -25
-87 -39 -31 -15 -63 -26 -71 -26 -8 0 -20 -7 -27 -15 -6 -8 -22 -17 -33 -20
-12 -4 -98 -45 -192 -92 -175 -87 -183 -92 -297 -156 -37 -20 -90 -49 -118
-63 -27 -14 -50 -29 -50 -34 0 -4 -12 -13 -27 -19 -42 -16 -69 -34 -323 -204
-269 -180 -248 -166 -440 -316 -294 -232 -461 -382 -743 -669 -180 -184 -279
-292 -408 -447 -19 -23 -40 -47 -47 -55 -12 -15 -135 -174 -229 -297 -42 -55
-187 -265 -228 -331 -5 -9 -24 -36 -41 -62 -16 -25 -46 -71 -65 -104 -19 -32
-44 -75 -56 -95 -12 -20 -25 -43 -30 -51 -4 -8 -17 -30 -30 -49 -12 -18 -35
-56 -49 -85 -15 -28 -45 -86 -68 -128 -50 -94 -124 -243 -178 -358 -22 -47
-51 -108 -64 -135 -13 -28 -24 -54 -24 -59 0 -10 -32 -83 -56 -128 -8 -14 -14
-32 -14 -40 0 -7 -12 -35 -25 -63 -14 -27 -25 -59 -25 -70 0 -11 -7 -29 -15
-39 -8 -11 -15 -27 -15 -35 -1 -9 -9 -34 -20 -56 -11 -22 -19 -49 -20 -59 0
-11 -8 -38 -19 -60 -10 -23 -23 -59 -29 -81 -6 -22 -15 -53 -21 -70 -25 -73
-43 -134 -53 -180 -5 -27 -15 -59 -21 -70 -6 -11 -16 -47 -23 -80 -18 -93 -45
-196 -60 -238 -8 -20 -14 -53 -14 -71 0 -19 -9 -63 -20 -98 -11 -34 -20 -79
-20 -98 0 -19 -9 -70 -20 -114 -11 -43 -20 -93 -20 -110 0 -17 -9 -87 -19
-156 -11 -69 -25 -192 -31 -274 -7 -106 -15 -155 -25 -166 -22 -25 -23 -1095
0 -1120 10 -11 18 -60 25 -160 6 -80 15 -179 20 -220 5 -41 14 -113 20 -160 6
-47 15 -105 21 -130 7 -25 17 -83 25 -130 7 -47 25 -137 39 -200 14 -63 33
-148 40 -188 8 -40 17 -78 21 -83 3 -5 15 -45 25 -87 34 -131 60 -221 90 -307
6 -16 15 -48 20 -70 5 -22 19 -65 31 -95 11 -30 26 -71 33 -90 52 -144 70
-190 86 -226 10 -23 19 -46 19 -53 0 -6 9 -28 20 -48 11 -21 20 -44 20 -51 0
-8 7 -26 15 -40 28 -53 65 -139 65 -154 0 -9 7 -21 15 -28 8 -6 17 -22 21 -33
8 -30 165 -344 220 -442 24 -44 52 -93 60 -110 30 -57 49 -90 87 -146 20 -31
37 -61 37 -66 0 -5 9 -18 20 -28 11 -10 20 -22 20 -27 0 -4 16 -31 35 -59 20
-27 40 -60 46 -72 5 -12 27 -47 49 -77 22 -30 61 -86 86 -124 26 -37 74 -105
108 -150 34 -44 69 -92 78 -106 9 -14 33 -43 53 -65 20 -22 45 -53 56 -70 21
-33 234 -277 354 -406 44 -47 87 -94 96 -105 62 -76 442 -424 634 -579 61 -49
117 -96 125 -102 24 -21 160 -125 209 -160 108 -78 433 -292 451 -298 11 -4
20 -10 20 -15 0 -4 20 -18 45 -30 24 -12 59 -31 77 -43 18 -12 44 -28 58 -35
14 -7 43 -23 65 -37 22 -13 54 -31 70 -40 17 -9 48 -27 70 -40 22 -13 51 -29
65 -35 35 -15 122 -59 140 -69 8 -5 45 -23 82 -41 37 -17 70 -35 73 -40 4 -6
13 -10 21 -10 8 0 52 -17 97 -39 45 -21 93 -42 107 -46 14 -4 30 -11 35 -15 6
-5 53 -25 105 -45 52 -20 100 -40 105 -45 6 -4 24 -11 42 -14 17 -4 48 -16 69
-27 21 -10 46 -19 55 -19 10 0 30 -6 46 -14 29 -14 96 -38 173 -61 25 -7 59
-18 75 -23 17 -6 62 -19 100 -31 225 -66 306 -88 377 -101 26 -5 71 -15 100
-24 58 -16 178 -40 305 -61 45 -7 91 -16 103 -20 23 -7 260 -42 345 -51 28 -3
118 -12 200 -21 221 -23 203 -23 705 -24 411 -2 490 1 680 20 118 12 244 26
280 32 36 6 106 15 155 20 50 6 113 16 140 24 28 7 77 16 110 20 68 7 206 37
310 66 39 10 85 19 103 19 18 0 47 7 63 16 17 8 52 19 77 24 62 12 226 59 317
91 17 6 54 17 83 24 29 8 58 18 65 23 7 5 30 14 52 20 56 15 154 50 192 67 17
8 37 15 45 15 8 0 23 7 34 15 10 8 26 15 34 15 8 0 36 11 62 25 26 14 58 25
71 25 14 0 30 7 37 15 7 8 18 15 24 15 6 0 34 11 61 25 28 13 57 25 66 25 9 0
22 7 29 15 7 8 18 15 24 15 10 0 176 78 216 101 8 5 47 25 85 44 39 20 106 56
150 80 44 25 94 52 110 60 30 16 45 25 169 100 37 22 79 47 94 55 15 9 47 29
71 45 24 17 54 37 67 45 12 8 43 30 68 48 26 17 51 32 55 32 4 0 16 9 26 20
10 11 22 20 26 20 5 0 30 16 56 36 27 19 85 63 131 97 149 111 342 266 431
345 48 42 118 104 155 136 96 85 427 421 541 551 242 273 389 461 550 697 47
69 93 132 101 138 7 7 14 17 14 23 0 6 28 53 63 106 34 53 68 105 74 116 24
39 164 280 172 295 4 8 15 29 24 45 52 96 197 393 197 402 0 6 6 16 14 22 8 7
17 27 20 45 4 19 13 39 21 46 8 7 15 20 15 29 0 9 7 29 16 46 8 16 26 59 40
95 14 36 33 83 43 105 10 22 27 65 38 95 11 30 30 80 42 110 11 31 21 61 21
69 0 7 7 27 15 44 8 18 21 55 29 82 7 28 19 66 26 85 48 136 69 209 91 315 6
27 17 62 25 77 8 15 14 40 14 55 0 15 9 57 19 93 21 68 43 177 66 317 7 46 18
97 23 115 6 18 13 65 17 103 3 39 12 106 20 150 8 44 24 175 36 290 21 190 23
257 22 705 0 272 -3 524 -6 560 -15 179 -39 394 -53 470 -8 47 -19 117 -23
155 -11 97 -60 351 -93 485 -6 25 -16 72 -23 105 -6 33 -16 69 -22 80 -6 11
-14 43 -18 70 -4 28 -13 61 -20 75 -7 14 -16 45 -20 70 -4 25 -12 54 -18 65
-6 11 -16 43 -23 70 -16 63 -41 137 -65 193 -11 23 -19 51 -19 62 0 11 -9 37
-20 57 -11 21 -20 47 -20 58 0 11 -6 30 -14 41 -8 11 -17 37 -21 57 -4 20 -13
41 -21 48 -8 6 -14 19 -14 29 0 15 -15 55 -64 165 -13 28 -35 77 -91 200 -13
28 -40 86 -59 130 -20 44 -41 87 -46 95 -5 8 -25 47 -45 85 -20 39 -47 88 -60
110 -14 22 -34 58 -45 80 -49 95 -91 170 -104 184 -7 9 -30 45 -51 81 -48 81
-277 428 -327 495 -21 28 -44 59 -53 70 -43 58 -253 318 -340 421 -206 245
-777 793 -990 950 -22 16 -49 37 -60 48 -11 10 -31 25 -45 34 -14 9 -32 22
-40 29 -51 46 -462 333 -477 333 -3 0 -18 11 -35 25 -16 14 -35 25 -42 25 -7
0 -21 9 -31 20 -10 11 -23 20 -29 20 -6 0 -38 18 -71 40 -33 22 -64 40 -69 40
-5 0 -17 6 -25 14 -9 8 -43 28 -76 46 -33 17 -109 58 -170 90 -60 33 -126 67
-145 76 -19 9 -47 23 -62 30 -14 8 -33 14 -42 14 -9 0 -25 9 -35 19 -10 10
-30 22 -43 26 -12 4 -32 14 -43 21 -11 8 -27 14 -36 14 -9 0 -28 9 -42 20 -14
11 -32 20 -40 20 -15 0 -110 39 -159 66 -14 8 -33 14 -42 14 -8 0 -36 11 -62
25 -26 14 -54 25 -63 25 -9 0 -25 6 -36 13 -11 8 -38 19 -60 25 -22 6 -71 22
-110 37 -38 14 -90 32 -115 39 -25 8 -58 18 -75 24 -16 5 -52 17 -80 27 -27 9
-72 21 -100 27 -27 5 -62 16 -77 24 -15 8 -36 14 -47 14 -12 0 -47 9 -78 19
-32 11 -80 22 -108 26 -27 4 -62 13 -77 21 -15 8 -43 14 -61 14 -19 0 -63 9
-98 19 -35 10 -92 22 -127 26 -34 3 -84 12 -110 20 -26 8 -63 15 -82 15 -19 0
-84 9 -145 19 -266 48 -474 63 -960 66 -253 2 -532 0 -620 -5z m273 -516 c22
-15 22 -15 22 -1351 0 -948 -3 -1354 -11 -1397 -12 -64 -52 -206 -74 -266 -29
-77 -101 -246 -115 -270 -5 -8 -23 -42 -41 -75 -17 -32 -39 -70 -50 -83 -10
-14 -19 -28 -19 -33 0 -25 -177 -251 -299 -382 -50 -53 -237 -214 -302 -260
-80 -55 -146 -99 -187 -124 -60 -35 -296 -153 -307 -153 -5 0 -23 -7 -40 -16
-34 -18 -118 -49 -187 -69 -25 -7 -55 -18 -65 -23 -10 -6 -41 -15 -68 -21 -28
-5 -75 -16 -105 -24 -96 -26 -193 -46 -250 -53 -30 -3 -91 -13 -135 -21 -56
-11 -171 -18 -385 -22 l-305 -6 0 -2965 c0 -2752 1 -2971 17 -3050 9 -47 20
-107 23 -135 11 -86 70 -312 99 -380 8 -17 16 -44 20 -62 4 -17 14 -37 21 -43
8 -7 17 -27 21 -46 3 -19 10 -36 14 -39 5 -3 23 -36 41 -73 18 -37 42 -81 54
-98 11 -18 38 -62 60 -98 22 -36 46 -68 53 -71 7 -2 39 5 70 16 31 11 71 25
89 30 18 5 45 16 60 24 15 8 39 15 53 15 15 0 30 4 36 10 10 10 102 44 169 62
22 6 45 15 52 20 16 13 115 38 124 32 12 -7 0 -34 -36 -79 -17 -22 -44 -60
-60 -85 -17 -25 -33 -47 -36 -50 -3 -3 -25 -32 -48 -65 -55 -79 -104 -148
-147 -206 -19 -26 -34 -50 -34 -54 0 -18 278 -319 332 -360 15 -11 66 -54 115
-95 131 -112 381 -290 407 -290 5 0 17 -6 25 -14 39 -33 379 -196 410 -196 5
0 22 -6 38 -14 54 -26 222 -77 338 -101 33 -7 73 -18 88 -24 16 -6 43 -11 61
-11 19 0 85 -9 147 -19 151 -26 257 -30 269 -11 6 8 8 21 5 28 -3 7 4 41 14
75 28 95 51 184 66 265 8 40 19 81 25 91 5 11 10 31 10 46 0 14 9 50 19 81 11
30 23 76 27 102 21 145 73 163 90 31 3 -30 13 -69 20 -87 7 -18 16 -57 20 -85
4 -29 12 -66 20 -84 7 -18 16 -54 20 -80 3 -26 12 -62 19 -79 7 -17 16 -55 20
-85 4 -30 12 -65 18 -79 5 -14 15 -52 21 -85 12 -60 12 -60 70 -63 33 -2 93 1
135 7 162 21 278 40 301 49 14 5 50 13 80 16 30 4 71 13 90 21 19 7 76 25 125
40 50 15 108 36 131 46 22 10 45 19 51 19 6 0 24 7 40 15 24 12 166 79 227
106 12 5 39 20 61 34 22 13 50 28 62 34 12 6 45 26 72 46 28 19 55 35 60 35 5
0 22 11 38 24 15 12 54 41 86 63 83 58 245 195 345 293 141 139 262 273 262
292 0 17 -35 70 -125 193 -22 30 -57 78 -78 107 -21 29 -65 89 -98 132 -92
124 -82 133 81 75 63 -22 133 -46 155 -54 22 -8 72 -26 110 -40 39 -15 87 -31
108 -36 21 -5 48 -16 60 -23 12 -8 36 -17 53 -20 27 -6 34 -3 56 26 37 49 110
175 172 298 15 30 34 67 42 82 8 14 14 32 14 38 0 7 9 31 19 54 24 51 58 158
67 211 4 22 11 49 17 60 6 11 16 58 23 105 7 47 17 112 23 145 28 159 31 510
31 3232 0 2750 0 2792 -19 2803 -12 6 -125 10 -293 11 -185 0 -304 5 -368 15
-52 8 -126 19 -165 24 -38 5 -95 16 -125 24 -30 8 -84 22 -120 31 -134 32
-170 43 -182 53 -7 5 -32 13 -55 17 -24 4 -45 11 -48 16 -3 4 -25 13 -48 20
-23 6 -49 17 -57 24 -8 7 -26 16 -40 20 -28 8 -186 85 -242 118 -21 12 -63 37
-95 56 -32 18 -85 55 -118 81 -33 26 -67 51 -77 56 -37 21 -239 211 -329 309
-80 89 -221 278 -274 367 -50 84 -85 151 -85 163 0 7 -5 17 -10 20 -6 4 -24
36 -41 73 -17 37 -39 85 -50 108 -10 22 -19 47 -19 55 0 8 -5 20 -11 26 -5 5
-16 32 -24 59 -7 27 -21 68 -29 91 -14 38 -16 199 -16 1424 0 997 3 1385 11
1395 8 10 34 12 107 8 236 -12 714 -67 852 -98 36 -9 90 -18 120 -22 30 -3 66
-11 80 -16 14 -5 52 -14 85 -19 33 -6 83 -16 110 -24 28 -8 79 -21 115 -30 36
-8 88 -22 115 -30 28 -8 82 -23 120 -34 130 -37 261 -79 350 -111 28 -11 77
-29 110 -41 33 -12 72 -28 87 -35 14 -8 32 -14 40 -14 8 0 31 -9 53 -20 22
-11 43 -20 49 -20 8 0 45 -16 162 -71 22 -10 45 -19 51 -19 6 0 16 -7 23 -15
7 -8 19 -15 27 -15 13 0 192 -84 233 -110 8 -5 44 -23 80 -41 36 -17 79 -39
95 -48 65 -37 112 -63 150 -86 22 -14 51 -30 65 -37 14 -7 46 -27 72 -45 26
-18 51 -33 54 -33 9 0 357 -235 439 -295 165 -123 272 -205 312 -241 17 -16
78 -67 135 -114 138 -114 590 -565 714 -714 54 -66 122 -147 150 -180 73 -88
231 -299 289 -386 27 -41 55 -79 62 -83 7 -4 13 -13 13 -19 0 -7 27 -52 60
-100 33 -49 60 -92 60 -95 0 -4 19 -36 43 -72 49 -77 50 -78 117 -196 28 -49
55 -97 60 -105 35 -60 230 -464 230 -478 0 -5 6 -15 14 -21 8 -7 18 -26 22
-43 3 -17 15 -45 25 -62 10 -17 19 -41 19 -53 0 -12 4 -24 9 -28 5 -3 15 -22
21 -43 6 -20 17 -50 25 -67 27 -62 57 -141 65 -170 9 -31 33 -103 56 -165 7
-19 24 -75 39 -125 31 -109 62 -214 81 -275 7 -25 16 -63 19 -85 4 -22 13 -62
22 -88 8 -26 19 -71 24 -100 8 -48 24 -134 49 -262 6 -27 17 -99 25 -160 8
-60 20 -133 25 -161 6 -27 15 -108 20 -180 5 -71 15 -167 21 -214 20 -141 17
-834 -4 -1015 -9 -82 -21 -195 -27 -250 -5 -55 -12 -113 -15 -130 -2 -16 -9
-68 -15 -115 -5 -47 -16 -116 -24 -155 -33 -161 -55 -272 -61 -310 -4 -22 -13
-60 -20 -85 -16 -51 -41 -150 -56 -225 -6 -27 -16 -61 -24 -75 -7 -14 -15 -43
-19 -65 -4 -22 -13 -56 -20 -75 -14 -35 -35 -97 -61 -180 -28 -93 -47 -146
-61 -172 -8 -14 -14 -32 -14 -40 0 -8 -9 -31 -20 -53 -11 -22 -20 -44 -20 -49
0 -5 -8 -28 -18 -50 -10 -23 -29 -68 -42 -101 -12 -33 -43 -103 -67 -155 -25
-52 -63 -133 -85 -180 -22 -47 -44 -92 -49 -100 -5 -8 -16 -28 -24 -45 -9 -16
-20 -37 -25 -45 -6 -8 -14 -26 -20 -40 -5 -14 -14 -32 -20 -40 -5 -8 -42 -73
-82 -143 -40 -70 -83 -144 -95 -165 -13 -20 -26 -44 -30 -52 -7 -13 -47 -75
-99 -154 -10 -15 -32 -47 -49 -71 -16 -23 -51 -73 -78 -111 -84 -122 -117
-167 -210 -284 -249 -314 -560 -649 -797 -858 -58 -50 -130 -114 -160 -141
-30 -27 -84 -72 -120 -100 -36 -28 -75 -58 -88 -68 -12 -10 -37 -31 -55 -46
-18 -16 -54 -44 -82 -63 -27 -19 -70 -50 -95 -69 -25 -19 -128 -89 -230 -157
-199 -132 -194 -130 -287 -183 -34 -19 -65 -40 -68 -44 -3 -5 -19 -12 -36 -16
-17 -4 -33 -13 -36 -21 -3 -8 -9 -14 -14 -14 -6 0 -45 -20 -89 -45 -44 -25
-85 -45 -91 -45 -7 0 -20 -6 -28 -14 -29 -24 -276 -146 -297 -146 -6 0 -17 -6
-23 -14 -7 -8 -24 -17 -39 -20 -15 -4 -40 -13 -57 -21 -16 -7 -51 -23 -77 -34
-27 -12 -67 -30 -90 -40 -24 -11 -56 -23 -73 -27 -16 -4 -35 -11 -42 -16 -7
-5 -31 -16 -55 -23 -24 -8 -74 -26 -113 -40 -38 -15 -88 -31 -110 -37 -22 -6
-58 -19 -81 -29 -22 -11 -53 -19 -68 -19 -15 0 -40 -7 -54 -15 -29 -15 -49
-21 -317 -89 -133 -35 -153 -39 -215 -51 -36 -7 -99 -20 -140 -28 -41 -8 -104
-20 -140 -27 -36 -6 -83 -16 -105 -20 -22 -5 -66 -9 -97 -10 -31 0 -60 -5 -64
-11 -3 -6 -20 -9 -38 -6 -17 2 -39 0 -49 -5 -9 -5 -81 -13 -160 -18 -78 -6
-185 -15 -237 -21 -150 -17 -760 -14 -915 4 -71 9 -179 18 -238 22 -59 3 -131
10 -160 16 -29 6 -97 17 -152 24 -55 8 -126 19 -157 25 -32 5 -82 14 -110 19
-89 15 -210 41 -263 56 -65 18 -167 43 -230 56 -27 5 -59 14 -70 20 -11 5 -45
16 -75 24 -100 25 -185 51 -207 63 -12 7 -30 12 -40 12 -10 0 -35 9 -56 20
-20 11 -47 20 -59 20 -13 0 -36 7 -53 16 -16 9 -48 22 -70 29 -101 34 -182 67
-248 100 -16 8 -34 15 -40 15 -7 0 -29 9 -50 20 -20 11 -43 20 -51 20 -7 0
-24 8 -37 19 -13 10 -38 22 -56 25 -17 4 -37 14 -44 22 -6 8 -17 14 -24 14
-10 0 -101 44 -145 70 -8 5 -28 15 -45 23 -78 36 -284 150 -400 220 -61 37
-498 329 -540 360 -139 105 -347 271 -397 317 -9 8 -38 33 -64 55 -159 133
-577 547 -607 601 -5 9 -27 35 -50 58 -42 43 -323 392 -370 461 -16 22 -48 67
-73 100 -60 82 -154 221 -154 228 0 4 -24 42 -52 85 -70 104 -64 93 -170 282
-52 91 -122 224 -157 295 -35 72 -67 137 -72 145 -5 8 -14 26 -20 40 -11 24
-29 66 -62 140 -8 19 -27 61 -41 92 -14 31 -26 63 -26 70 0 7 -7 22 -15 32 -8
11 -15 27 -15 35 0 8 -8 33 -18 55 -29 63 -60 148 -68 181 -3 17 -13 40 -20
52 -7 12 -18 39 -23 60 -10 39 -33 114 -52 168 -6 17 -17 55 -24 85 -7 30 -18
69 -24 85 -15 41 -40 136 -56 215 -13 64 -33 152 -60 260 -8 30 -17 82 -20
115 -4 33 -13 80 -20 105 -7 25 -16 81 -20 125 -3 44 -12 114 -20 155 -8 41
-20 143 -26 225 -6 83 -15 191 -19 240 -11 118 -10 685 0 800 5 50 13 153 19
230 6 77 15 170 21 205 6 36 15 103 20 150 5 46 16 112 24 145 8 33 18 87 21
120 4 33 16 93 26 134 10 41 19 85 19 97 0 12 6 37 14 55 8 19 17 59 21 89 4
30 12 64 18 75 6 11 16 47 23 80 6 33 16 74 22 90 5 17 17 53 27 80 9 28 21
69 25 93 5 23 14 52 20 63 7 11 18 42 25 67 23 80 46 146 61 174 8 14 14 34
14 45 0 10 7 31 16 48 19 37 64 149 64 160 0 4 9 29 21 54 12 25 29 64 39 86
10 22 29 65 43 95 14 30 28 62 31 70 3 8 10 22 15 30 5 8 33 62 61 120 28 58
71 141 95 185 24 44 51 94 60 110 9 17 27 48 40 70 13 22 28 50 34 62 6 12 25
44 43 70 19 26 39 59 46 73 7 14 20 37 30 51 9 14 49 75 89 135 39 60 82 123
95 141 13 17 48 66 78 108 56 78 253 328 295 374 13 14 58 67 100 116 183 213
497 523 680 671 33 27 67 56 76 65 23 23 294 237 347 274 23 17 81 58 130 92
48 34 110 78 137 96 28 18 70 47 94 63 24 16 58 37 75 47 17 10 48 28 68 40
150 90 361 207 372 207 7 0 19 6 25 14 7 8 25 18 41 21 16 3 34 12 40 20 6 8
25 17 41 20 16 4 31 10 34 15 5 8 65 38 180 91 164 75 198 89 222 95 16 4 33
10 38 14 6 4 48 22 95 40 47 17 99 38 115 45 17 8 46 18 65 24 49 14 128 40
170 56 72 27 133 46 295 90 33 9 80 23 105 30 25 8 68 19 95 24 28 6 77 17
110 25 33 8 87 20 120 26 33 7 103 21 155 31 52 11 138 26 190 33 52 8 126 19
163 25 37 7 123 16 190 22 67 5 136 12 152 15 24 4 166 15 295 22 14 1 36 -5
48 -14z m294 -3642 c133 -238 439 -578 679 -753 72 -52 219 -152 240 -163 8
-4 46 -24 84 -46 79 -45 263 -135 345 -169 30 -13 73 -32 96 -42 23 -11 47
-19 55 -19 7 0 36 -8 64 -19 131 -49 333 -109 460 -136 33 -7 89 -20 125 -28
36 -9 94 -20 130 -26 36 -6 90 -15 120 -20 30 -5 93 -15 140 -21 47 -7 95 -19
108 -27 23 -14 23 -14 20 -2066 -3 -1913 -4 -2056 -21 -2110 -9 -32 -17 -70
-17 -85 0 -15 -7 -52 -15 -82 -9 -30 -22 -82 -30 -115 -15 -67 -38 -139 -66
-203 -11 -23 -19 -48 -19 -55 0 -6 -10 -32 -21 -57 -12 -25 -27 -58 -34 -75
-20 -47 -114 -236 -138 -277 -100 -169 -162 -256 -314 -448 -15 -19 -103 -110
-195 -202 -148 -148 -321 -291 -435 -360 -15 -10 -57 -36 -93 -59 -77 -49
-248 -139 -265 -139 -7 0 -18 -6 -24 -14 -7 -8 -27 -18 -44 -22 -18 -3 -36
-10 -42 -14 -23 -18 -216 -86 -283 -100 -24 -6 -64 -16 -90 -25 -26 -8 -99
-25 -162 -37 -104 -21 -143 -23 -420 -23 -280 0 -315 2 -425 24 -192 37 -371
86 -451 122 -23 11 -47 19 -54 19 -6 0 -24 7 -38 15 -15 8 -58 27 -97 44 -75
32 -169 80 -225 115 -67 42 -75 46 -100 58 -14 7 -49 31 -79 53 -29 22 -63 47
-75 55 -30 21 -184 144 -228 182 -85 74 -268 261 -268 273 0 4 -28 41 -63 84
-88 105 -164 218 -259 380 -72 125 -186 379 -204 456 -4 17 -10 35 -14 40 -5
6 -16 37 -25 70 -16 56 -23 83 -60 225 -7 30 -24 116 -37 190 -23 135 -23 135
-26 2141 -2 1822 -1 2007 13 2019 18 15 68 25 205 40 52 6 115 18 139 26 25 8
59 14 76 14 17 0 55 7 85 15 30 8 82 20 114 26 32 5 68 15 78 20 11 6 47 15
80 20 34 6 73 16 87 24 14 8 47 17 73 20 26 3 50 10 53 15 3 4 27 13 55 20 27
6 66 20 87 31 20 10 42 19 49 19 16 0 141 53 225 96 26 13 56 24 67 24 12 0
24 5 27 10 4 6 21 17 38 25 49 22 160 85 177 99 8 7 22 16 31 19 21 7 160 103
274 188 50 37 153 131 230 208 161 161 165 166 222 241 24 30 49 62 55 70 15
16 56 80 113 175 72 120 85 122 137 27z"/>
<path d="M6438 7953 c-49 -3 -61 -8 -83 -34 -14 -17 -28 -43 -32 -57 -3 -15
-14 -43 -25 -62 -10 -19 -18 -43 -18 -53 0 -11 -6 -31 -14 -45 -23 -43 -106
-334 -106 -372 0 -14 -7 -50 -15 -80 -19 -71 -39 -310 -40 -475 0 -165 22
-438 39 -479 7 -17 16 -60 20 -95 4 -36 14 -74 22 -85 8 -11 14 -31 14 -43 0
-26 72 -215 100 -263 5 -8 21 -35 36 -60 119 -202 276 -364 458 -474 108 -65
249 -128 341 -151 28 -7 58 -16 67 -20 11 -4 20 0 28 14 8 15 10 348 8 1188
-4 1297 2 1190 -70 1338 -59 123 -214 247 -338 270 -19 3 -55 12 -80 20 -48
14 -219 24 -312 18z"/>
<path d="M8250 7951 c-150 -16 -305 -76 -391 -151 -76 -65 -141 -176 -169
-290 -10 -39 -16 -2387 -7 -2397 9 -9 128 17 151 33 11 8 28 14 38 14 37 0
295 145 327 183 7 10 19 17 25 17 11 0 42 28 133 120 45 45 90 102 154 195 40
58 129 234 129 256 0 8 6 23 14 34 7 11 18 40 24 65 6 25 17 63 26 85 8 22 15
52 16 66 0 15 7 45 15 68 39 110 57 602 31 834 -16 135 -55 346 -74 398 -5 13
-12 45 -16 71 -4 26 -11 50 -16 53 -4 3 -14 29 -20 57 -7 29 -19 62 -26 73 -8
11 -14 26 -14 35 0 9 -9 33 -20 55 -11 21 -25 53 -31 72 -6 18 -18 37 -27 42
-24 12 -196 20 -272 12z"/>
</g>
</svg>
